<?xml version="1.0" encoding="UTF-8"?>
<svg width="397px" height="93px" viewBox="0 0 397 93" version="1.1" xmlns="http://www.w3.org/2000/svg" xmlns:xlink="http://www.w3.org/1999/xlink">
    <!-- Generator: Sketch 52.6 (67491) - http://www.bohemiancoding.com/sketch -->
    <title>kotb_logo</title>
    <desc>Created with Sketch.</desc>
    <g id="Page-1" stroke="none" stroke-width="1" fill="none" fill-rule="evenodd">
        <g id="Coroa">
            <polygon id="Fill-22" fill="#FFC500" points="-5.68434189e-14 90.069 91.39 90.069 91.39 67.963 -5.68434189e-14 67.963"></polygon>
            <polyline id="Fill-23" fill="#FFC500" points="62.252 22.061 45.695 -2.84217094e-14 29.138 22.061 45.695 38.609 62.252 22.061"></polyline>
            <polyline id="Fill-24" fill="#FFD16D" points="50.49 43.726 65.576 58.813 91.39 58.813 91.39 2.184 50.49 43.726"></polyline>
            <polyline id="Fill-25" fill="#FFD16D" points="40.899 43.726 -5.68434189e-14 2.184 -5.68434189e-14 58.813 25.813 58.813 40.899 43.726"></polyline>
            <polyline id="Fill-26" fill="#FFC500" points="55.338 58.813 45.695 48.282 36.052 58.813 55.338 58.813"></polyline>
        </g>
        <path d="M171.52,52.88 L175.52,52.88 L175.52,66 L153.68,66 L141.68,41.2 L138,44.24 L138,52.88 L141.84,52.88 L141.84,66 L111.6,66 L111.6,52.88 L115.6,52.88 L115.6,16.88 L111.6,16.88 L111.6,3.76 L141.84,3.76 L141.84,16.88 L138,16.88 L138,27.44 L150.4,16.88 L145.36,16.88 L145.36,3.76 L175.12,3.76 L175.12,16.88 L171.12,16.88 L157.76,27.92 L171.52,52.88 Z M214.68,67.12 C204.919952,67.12 197.386694,64.5600256 192.08,59.44 C186.773307,54.3199744 184.12,46.1333896 184.12,34.88 C184.12,23.6266104 186.773307,15.4400256 192.08,10.32 C197.386694,5.1999744 204.919952,2.64 214.68,2.64 C224.440049,2.64 231.973307,5.1999744 237.28,10.32 C242.586694,15.4400256 245.24,23.6266104 245.24,34.88 C245.24,46.1333896 242.586694,54.3199744 237.28,59.44 C231.973307,64.5600256 224.440049,67.12 214.68,67.12 Z M214.68,52.88 C216.493343,52.88 217.853329,52.4000048 218.76,51.44 C219.666672,50.4799952 220.12,48.9866768 220.12,46.96 L220.12,22.8 C220.12,20.7733232 219.666672,19.2800048 218.76,18.32 C217.853329,17.3599952 216.493343,16.88 214.68,16.88 C212.866658,16.88 211.506672,17.3599952 210.6,18.32 C209.693329,19.2800048 209.24,20.7733232 209.24,22.8 L209.24,46.96 C209.24,49.0400104 209.693329,50.546662 210.6,51.48 C211.506672,52.413338 212.866658,52.88 214.68,52.88 Z M316.240001,23.12 L302.480001,23.12 L302.480001,16.88 L297.360001,16.88 L297.360001,52.88 L302.960001,52.88 L302.960001,66 L269.360001,66 L269.360001,52.88 L274.960001,52.88 L274.960001,16.88 L269.840001,16.88 L269.840001,23.12 L256.080001,23.12 L256.080001,3.76 L316.240001,3.76 L316.240001,23.12 Z M327.560001,52.88 L331.560001,52.88 L331.560001,16.88 L327.560001,16.88 L327.560001,3.76 L364.280001,3.76 C370.946701,3.76 376.146649,5.1199864 379.880001,7.84 C383.613353,10.5600136 385.480001,14.453308 385.480001,19.52 C385.480001,22.6666824 384.733342,25.3199892 383.240001,27.48 C381.74666,29.6400108 380.000011,31.2666612 378.000001,32.36 C375.999991,33.4533388 374.066677,34.1866648 372.200001,34.56 L372.200001,35.36 C375.986687,35.7333352 379.399986,36.9333232 382.440001,38.96 C385.480016,40.9866768 387.000001,44.6133072 387.000001,49.84 C387.000001,55.440028 384.893356,59.5333204 380.680001,62.12 C376.466647,64.7066796 371.000035,66 364.280001,66 L327.560001,66 L327.560001,52.88 Z M358.280001,30 C359.826676,30 360.986664,29.5866708 361.760001,28.76 C362.533338,27.9333292 362.920001,26.6400088 362.920001,24.88 L362.920001,22 C362.920001,20.2399912 362.533338,18.9466708 361.760001,18.12 C360.986664,17.2933292 359.826676,16.88 358.280001,16.88 L353.960001,16.88 L353.960001,30 L358.280001,30 Z M358.840001,52.88 C360.386676,52.88 361.546664,52.4666708 362.320001,51.64 C363.093338,50.8133292 363.480001,49.5200088 363.480001,47.76 L363.480001,44.24 C363.480001,42.4799912 363.093338,41.1866708 362.320001,40.36 C361.546664,39.5333292 360.386676,39.12 358.840001,39.12 L353.960001,39.12 L353.960001,52.88 L358.840001,52.88 Z" id="KOTB" fill="#69625A"></path>
        <path d="M121.1,87.82 C121.1,87.9000004 121.076667,87.9466666 121.03,87.96 C120.983333,87.9733334 120.826668,87.98 120.56,87.98 L120.16,87.98 L117.22,88 C116.979999,88 116.86,87.9600004 116.86,87.88 C116.86,87.7866662 117.079998,87.7200002 117.52,87.68 C117.786668,87.6533332 117.92,87.6000004 117.92,87.52 C117.92,87.4666664 117.766668,87.273335 117.46,86.94 C117.179999,86.6466652 116.106676,85.4800102 114.24,83.44 L114.24,87.04 C114.24,87.3600016 114.28,87.5466664 114.36,87.6 C114.44,87.6533336 114.699998,87.6866666 115.14,87.7 C115.286667,87.7 115.36,87.7533328 115.36,87.86 C115.36,87.9533338 115.260001,88 115.06,88 L114.92,88 C114.786666,87.9733332 114.146672,87.96 113,87.96 C112.493331,87.96 112.120001,87.9733332 111.88,88 L111.74,88 C111.553332,88 111.46,87.9466672 111.46,87.84 C111.46,87.7199994 111.653331,87.6666666 112.04,87.68 C112.306668,87.68 112.46,87.6400004 112.5,87.56 C112.54,87.4799996 112.56,87.1933358 112.56,86.7 L112.56,80 C112.56,79.6266648 112.553333,79.4200002 112.54,79.38 C112.5,79.2733328 112.313335,79.22 111.98,79.22 C111.646665,79.22 111.48,79.1600006 111.48,79.04 C111.48,78.9466662 111.573332,78.9 111.76,78.9 L111.96,78.9 C112.080001,78.9133334 112.18,78.92 112.26,78.92 L113.56,78.94 C113.626667,78.94 113.906664,78.9333334 114.4,78.92 L115.08,78.9 C115.266668,78.9 115.36,78.9533328 115.36,79.06 C115.36,79.1533338 115.140002,79.2066666 114.7,79.22 C114.486666,79.2333334 114.356667,79.2566665 114.31,79.29 C114.263333,79.3233335 114.24,79.4333324 114.24,79.62 L114.24,82.92 C116.733346,80.6133218 117.98,79.4133338 117.98,79.32 C117.98,79.253333 117.706669,79.22 117.16,79.22 C116.999999,79.22 116.92,79.1666672 116.92,79.06 C116.92,78.9799996 116.966666,78.9333334 117.06,78.92 C117.153334,78.9066666 117.486664,78.9 118.06,78.9 C119.086672,78.9 119.686666,78.9066666 119.86,78.92 C120.033334,78.9333334 120.12,78.9866662 120.12,79.08 C120.12,79.213334 120.000001,79.2733334 119.76,79.26 L119.2,79.24 C119.013332,79.2266666 118.786668,79.3466654 118.52,79.6 C118.346666,79.7466674 118.080002,79.986665 117.72,80.32 C117.186664,80.8266692 116.373339,81.579995 115.28,82.58 C115.453334,82.7666676 116.086661,83.4133278 117.18,84.52 L119.54,86.9 C119.913335,87.2733352 120.159999,87.4966663 120.28,87.57 C120.400001,87.6433337 120.593332,87.68 120.86,87.68 C121.020001,87.68 121.1,87.7266662 121.1,87.82 Z M133.61,87.88 C133.61,87.9600004 133.550001,88 133.43,88 L133.23,88 L132.81,87.98 L132.29,87.98 C132.183333,87.98 132.070001,87.9733334 131.95,87.96 L131.73,87.96 C131.596666,87.96 131.346669,87.9666666 130.98,87.98 C130.613332,87.9933334 130.336668,88 130.15,88 L130.07,88 C129.843332,88 129.73,87.9600004 129.73,87.88 C129.73,87.7733328 129.876665,87.7133334 130.17,87.7 C130.570002,87.6733332 130.78,87.626667 130.8,87.56 C130.82,87.493333 130.83,87.2066692 130.83,86.7 L130.83,80.26 C130.83,79.7399974 130.816667,79.4366671 130.79,79.35 C130.763333,79.2633329 130.663334,79.2133334 130.49,79.2 L130.09,79.18 L129.89,79.18 C129.77,79.18 129.71,79.1333338 129.71,79.04 C129.71,78.9466662 129.796666,78.9 129.97,78.9 L130.09,78.9 C130.183334,78.9133334 130.329999,78.92 130.53,78.92 L131.97,78.92 C132.050001,78.92 132.169999,78.9133334 132.33,78.9 L133.27,78.9 C133.483335,78.9 133.59,78.9533328 133.59,79.06 C133.59,79.1400004 133.363336,79.1866666 132.91,79.2 C132.723333,79.2 132.61,79.2299997 132.57,79.29 C132.53,79.3500003 132.51,79.5333318 132.51,79.84 L132.51,87.38 C132.51,87.513334 132.56,87.5999998 132.66,87.64 C132.760001,87.6800002 132.996665,87.7133332 133.37,87.74 C133.530001,87.7533334 133.61,87.7999996 133.61,87.88 Z M151.82,79.06 C151.82,79.1666672 151.673335,79.22 151.38,79.22 C151.34,79.22 151.246668,79.2133334 151.1,79.2 L150.88,79.2 C150.76,79.2 150.69,79.2266664 150.67,79.28 C150.65,79.3333336 150.64,79.5133318 150.64,79.82 L150.64,87.16 C150.64,87.6400024 150.633334,87.9199996 150.62,88 C150.606667,88.0800004 150.546668,88.12 150.44,88.12 C150.293333,88.12 149.820004,87.5666722 149.02,86.46 C148.926667,86.3133326 148.780001,86.1133346 148.58,85.86 C148.553334,85.8199998 148.480001,85.7200008 148.36,85.56 C147.69333,84.6799956 146.486676,83.0266788 144.74,80.6 L144.74,86.9 C144.74,87.3933358 144.81,87.6533332 144.95,87.68 C145.090001,87.7066668 145.346665,87.72 145.72,87.72 L145.8,87.72 C145.960001,87.72 146.04,87.7666662 146.04,87.86 C146.04,87.9666672 145.893335,88.02 145.6,88.02 C145.546667,88.02 145.326669,88.0066668 144.94,87.98 C144.739999,87.9666666 144.560001,87.96 144.4,87.96 C144.266666,87.96 144.133334,87.9666666 144,87.98 C143.746666,88.0066668 143.473335,88.02 143.18,88.02 C142.966666,88.02 142.86,87.9666672 142.86,87.86 C142.86,87.7666662 142.986666,87.72 143.24,87.72 L143.42,87.72 L143.68,87.7 C144.000002,87.6733332 144.166667,87.6133338 144.18,87.52 C144.193334,87.4666664 144.2,87.273335 144.2,86.94 L144.2,81.44 C144.2,80.439995 144.140001,79.840001 144.02,79.64 C143.86,79.373332 143.546669,79.24 143.08,79.24 C142.746665,79.24 142.58,79.1800006 142.58,79.06 C142.58,78.9666662 142.666666,78.92 142.84,78.92 L142.92,78.92 L144.02,78.94 L144.28,78.94 C144.413334,78.9266666 144.533333,78.92 144.64,78.92 L145.38,78.92 L150.1,85.4 L150.1,79.84 C150.1,79.506665 150.086667,79.3133336 150.06,79.26 C150.033334,79.2066664 149.926668,79.18 149.74,79.18 C149.566666,79.18 149.426668,79.1866666 149.32,79.2 L149.2,79.2 C148.946666,79.2 148.82,79.1466672 148.82,79.04 C148.82,78.973333 148.883333,78.9333334 149.01,78.92 C149.136668,78.9066666 149.586663,78.9 150.36,78.9 C151.093337,78.9 151.52,78.9066666 151.64,78.92 C151.760001,78.9333334 151.82,78.9799996 151.82,79.06 Z M170.290001,85.24 C170.290001,85.306667 170.170002,85.3466666 169.930001,85.36 L169.290001,85.38 C169.223334,85.3933334 169.173334,85.4533328 169.140001,85.56 C169.106667,85.6666672 169.090001,85.9066648 169.090001,86.28 L169.090001,87.08 C168.209996,87.8000036 167.196673,88.16 166.050001,88.16 C164.583327,88.16 163.416672,87.7433375 162.550001,86.91 C161.68333,86.0766625 161.250001,84.9666736 161.250001,83.58 C161.250001,82.1399928 161.67333,80.9766711 162.520001,80.09 C163.366671,79.2033289 164.483327,78.76 165.870001,78.76 C166.590004,78.76 167.36333,78.9866644 168.190001,79.44 C168.256668,79.4800002 168.316667,79.5 168.370001,79.5 C168.476668,79.5 168.55,79.4133342 168.590001,79.24 C168.670001,78.9999988 168.763333,78.88 168.870001,78.88 C168.976668,78.88 169.030001,78.9333328 169.030001,79.04 C169.030001,79.0133332 169.016667,79.1266654 168.990001,79.38 C168.95,79.7666686 168.930001,80.5333276 168.930001,81.68 C168.930001,81.9866682 168.850001,82.14 168.690001,82.14 C168.57,82.14 168.510001,82.0600008 168.510001,81.9 C168.483334,81.033329 168.240003,80.3433359 167.780001,79.83 C167.319998,79.3166641 166.723338,79.06 165.990001,79.06 C165.096663,79.06 164.39667,79.459996 163.890001,80.26 C163.383331,81.060004 163.130001,82.1533264 163.130001,83.54 C163.130001,84.87334 163.386665,85.9266628 163.900001,86.7 C164.413336,87.4733372 165.109996,87.86 165.990001,87.86 C166.790005,87.86 167.283333,87.6066692 167.470001,87.1 C167.536668,86.9266658 167.570001,86.6466686 167.570001,86.26 C167.570001,85.7799976 167.540001,85.5100003 167.480001,85.45 C167.42,85.3899997 167.170003,85.36 166.730001,85.36 L166.590001,85.36 C166.523334,85.3733334 166.463334,85.38 166.410001,85.38 C166.303333,85.38 166.250001,85.3333338 166.250001,85.24 C166.250001,85.1199994 166.409999,85.06 166.730001,85.06 L167.690001,85.06 C167.876668,85.0733334 167.976667,85.08 167.990001,85.08 C168.923339,85.08 169.456667,85.0733334 169.590001,85.06 L169.950001,85.06 C170.176668,85.06 170.290001,85.1199994 170.290001,85.24 Z M200.350001,83.52 C200.350001,84.8133398 199.930005,85.9099955 199.090001,86.81 C198.249997,87.7100045 197.22334,88.16 196.010001,88.16 C194.716661,88.16 193.626672,87.7033379 192.740001,86.79 C191.85333,85.8766621 191.410001,84.7600066 191.410001,83.44 C191.410001,82.0666598 191.83333,80.9433377 192.680001,80.07 C193.526672,79.1966623 194.609994,78.76 195.930001,78.76 C197.183341,78.76 198.23333,79.2166621 199.080001,80.13 C199.926672,81.0433379 200.350001,82.1733266 200.350001,83.52 Z M198.470001,83.58 C198.470001,82.0333256 198.156671,80.8133378 197.530001,79.92 C197.129999,79.3466638 196.576671,79.06 195.870001,79.06 C194.896663,79.06 194.190003,79.593328 193.750001,80.66 C193.443333,81.4066704 193.290001,82.3533276 193.290001,83.5 C193.290001,84.8733402 193.529999,85.9466628 194.010001,86.72 C194.490003,87.4933372 195.156663,87.88 196.010001,87.88 C197.650009,87.88 198.470001,86.446681 198.470001,83.58 Z M217.260001,81.32 C217.260001,81.4933342 217.213335,81.58 217.120001,81.58 C216.986667,81.58 216.900001,81.4533346 216.860001,81.2 C216.766667,80.4933298 216.573336,79.9933348 216.280001,79.7 C215.986666,79.4066652 215.246674,79.26 214.060001,79.26 C213.713333,79.26 213.260004,79.2666666 212.700001,79.28 L212.700001,83.04 L213.160001,83.04 C214.040006,83.04 214.58,82.9600008 214.780001,82.8 C214.980002,82.6399992 215.113334,82.1666706 215.180001,81.38 C215.193335,81.2066658 215.260001,81.12 215.380001,81.12 C215.513335,81.12 215.580001,81.2266656 215.580001,81.44 C215.580001,81.5466672 215.573335,81.6933324 215.560001,81.88 C215.546668,82.0666676 215.540001,82.5199964 215.540001,83.24 C215.540001,83.3600006 215.546668,83.5599986 215.560001,83.84 C215.573335,84.1200014 215.580001,84.4733312 215.580001,84.9 L215.580001,84.98 C215.580001,85.2333346 215.506669,85.36 215.360001,85.36 C215.253334,85.36 215.186668,85.2533344 215.160001,85.04 C215.066667,84.2266626 214.940002,83.7466674 214.780001,83.6 C214.62,83.4533326 214.140005,83.38 213.340001,83.38 L212.700001,83.38 L212.700001,87.24 C212.673334,87.4933346 212.766667,87.6466664 212.980001,87.7 C213.046668,87.7266668 213.253333,87.74 213.600001,87.74 C213.786669,87.74 213.880001,87.7866662 213.880001,87.88 C213.880001,87.9733338 213.793335,88.02 213.620001,88.02 L212.880001,88.02 C212.653333,88.0066666 212.506668,88 212.440001,88 L210.920001,88 C210.786667,88 210.646669,88.0066666 210.500001,88.02 L210.280001,88.02 C210.053333,88.02 209.940001,87.9733338 209.940001,87.88 C209.940001,87.7733328 210.033334,87.72 210.220001,87.72 C210.633337,87.72 210.873334,87.6900003 210.940001,87.63 C211.006668,87.5699997 211.040001,87.3666684 211.040001,87.02 L211.040001,79.96 C211.040001,79.5999982 211.006668,79.3900003 210.940001,79.33 C210.873334,79.2699997 210.640003,79.2333334 210.240001,79.22 C210.053334,79.22 209.960001,79.1600006 209.960001,79.04 C209.960001,78.9333328 210.1,78.88 210.380001,78.88 L214.200001,78.9 C215.626675,78.9133334 216.566666,78.8733338 217.020001,78.78 L217.040001,78.98 L217.120001,79.9 L217.220001,80.94 C217.246668,81.2200014 217.260001,81.3466668 217.260001,81.32 Z M246.560002,81.4 C246.560002,81.5866676 246.480002,81.68 246.320002,81.68 C246.146667,81.68 246.053335,81.5533346 246.040002,81.3 C246.000001,80.7533306 245.886669,80.3066684 245.700002,79.96 C245.446667,79.4799976 244.866673,79.24 243.960002,79.24 C243.826668,79.24 243.620003,79.2466666 243.340002,79.26 L243.340002,87.3 C243.340002,87.5533346 243.533333,87.6866666 243.920002,87.7 C244.30667,87.7133334 244.500002,87.7666662 244.500002,87.86 C244.500002,87.9533338 244.386669,88 244.160002,88 L244.020002,88 C243.900001,88 243.713336,87.9933334 243.460002,87.98 L242.460002,87.98 C242.18,87.9933334 241.820004,88 241.380002,88 L240.900002,88 C240.633334,88 240.500002,87.9533338 240.500002,87.86 C240.500002,87.7666662 240.719999,87.7133334 241.160002,87.7 C241.320002,87.7 241.426668,87.6866668 241.480002,87.66 C241.586669,87.6333332 241.646668,87.5633339 241.660002,87.45 C241.673335,87.3366661 241.680002,87.0000028 241.680002,86.44 L241.680002,79.26 C240.639996,79.2466666 239.963336,79.3533322 239.650002,79.58 C239.336667,79.8066678 239.126669,80.3399958 239.020002,81.18 C238.980001,81.4866682 238.893336,81.64 238.760002,81.64 C238.640001,81.64 238.580002,81.4866682 238.580002,81.18 C238.580002,80.7933314 238.640001,80.033339 238.760002,78.9 L243.420002,78.94 C243.833337,78.94 244.673329,78.9266668 245.940002,78.9 C246.046669,78.9 246.186667,78.8733336 246.360002,78.82 L246.380002,79.24 L246.440002,79.96 L246.500002,80.8 L246.540002,81.16 C246.553335,81.2800006 246.560002,81.3599998 246.560002,81.4 Z M265.130002,87.86 C265.130002,87.9533338 264.930004,88 264.530002,88 C264.516668,88 264.450002,87.9933334 264.330002,87.98 L262.510002,87.98 C262.283334,87.98 262.136669,87.9866666 262.070002,88 L261.750002,88.02 C261.456667,88.0333334 261.310002,87.9866672 261.310002,87.88 C261.310002,87.7999996 261.423334,87.7533334 261.650002,87.74 C262.090004,87.7266666 262.323335,87.6666672 262.350002,87.56 C262.376669,87.493333 262.390002,87.2733352 262.390002,86.9 L262.390002,83.24 L258.570002,83.24 L258.570002,87.36 C258.596669,87.5066674 258.653335,87.5999998 258.740002,87.64 C258.826669,87.6800002 259.056667,87.7066666 259.430002,87.72 C259.576669,87.72 259.650002,87.7666662 259.650002,87.86 C259.650002,87.9533338 259.51667,88 259.250002,88 L258.930002,88 C258.743334,87.9866666 258.470004,87.98 258.110002,87.98 L256.150002,88 C255.950001,88 255.850002,87.9533338 255.850002,87.86 C255.850002,87.7666662 256.043333,87.7133334 256.430002,87.7 C256.723337,87.6866666 256.883335,87.6066674 256.910002,87.46 L256.910002,79.98 C256.910002,79.6066648 256.903335,79.4066668 256.890002,79.38 C256.876668,79.2733328 256.75667,79.22 256.530002,79.22 C256.076666,79.2066666 255.850002,79.1400006 255.850002,79.02 C255.850002,78.9399996 255.943334,78.9 256.130002,78.9 L256.290002,78.9 C256.570003,78.9 256.84,78.9066666 257.100002,78.92 C257.360003,78.9333334 257.543335,78.94 257.650002,78.94 C257.796669,78.94 258.066666,78.9333334 258.460002,78.92 C258.853337,78.9066666 259.083335,78.9 259.150002,78.9 L259.290002,78.9 C259.51667,78.9 259.630002,78.9533328 259.630002,79.06 C259.630002,79.1800006 259.450004,79.2333334 259.090002,79.22 C258.863334,79.22 258.720002,79.2433331 258.660002,79.29 C258.600001,79.3366669 258.570002,79.4733322 258.570002,79.7 L258.570002,82.86 L262.390002,82.86 L262.390002,80.1 C262.390002,79.6733312 262.376669,79.4333336 262.350002,79.38 C262.323335,79.2199992 262.190003,79.1533332 261.950002,79.18 L261.570002,79.22 C261.396668,79.1933332 261.310002,79.1400004 261.310002,79.06 C261.310002,78.9533328 261.45,78.9 261.730002,78.9 L262.910002,78.9 C263.270004,78.9133334 263.530001,78.92 263.690002,78.92 C264.010003,78.92 264.230001,78.9133334 264.350002,78.9 L264.630002,78.9 C264.950003,78.9 265.110002,78.9466662 265.110002,79.04 C265.110002,79.1466672 265.020003,79.2 264.840002,79.2 C264.660001,79.2 264.510002,79.2066666 264.390002,79.22 C264.216668,79.22 264.116669,79.253333 264.090002,79.32 C264.063335,79.386667 264.050002,79.5999982 264.050002,79.96 L264.050002,86.88 C264.050002,87.3333356 264.083335,87.5833331 264.150002,87.63 C264.216669,87.6766669 264.45,87.7 264.850002,87.7 C265.036669,87.7 265.130002,87.7533328 265.130002,87.86 Z M282.180002,85.84 C282.180002,85.8533334 282.173335,85.9366659 282.160002,86.09 C282.146669,86.2433341 282.140002,86.3799994 282.140002,86.5 L282.120002,87.64 C282.120002,87.773334 282.126669,87.9199992 282.140002,88.08 L278.820002,88.02 L275.020002,88.04 C274.740001,88.04 274.600002,87.9933338 274.600002,87.9 C274.600002,87.7933328 274.680001,87.74 274.840002,87.74 C275.266671,87.74 275.516668,87.7100003 275.590002,87.65 C275.663336,87.5899997 275.700002,87.3733352 275.700002,87 L275.700002,80.12 C275.700002,79.5733306 275.653336,79.2833335 275.560002,79.25 C275.466668,79.2166665 275.233337,79.2 274.860002,79.2 C274.700001,79.2 274.620002,79.1533338 274.620002,79.06 C274.620002,78.9533328 274.706668,78.9 274.880002,78.9 L275.760002,78.9 L275.980002,78.92 L276.480002,78.92 C276.546669,78.92 276.879999,78.9133334 277.480002,78.9 L280.860002,78.9 C281.20667,78.9 281.493334,78.8866668 281.720002,78.86 L281.720002,79 L281.740002,79.3 C281.766669,79.500001 281.820002,80.099995 281.900002,81.1 C281.913335,81.166667 281.920002,81.2466662 281.920002,81.34 C281.920002,81.5133342 281.873336,81.6 281.780002,81.6 C281.660001,81.6 281.573336,81.466668 281.520002,81.2 C281.333334,80.1866616 280.980005,79.5933342 280.460002,79.42 C280.166667,79.3266662 279.473341,79.28 278.380002,79.28 L277.360002,79.28 L277.360002,83.02 L277.840002,83.02 C278.69334,83.02 279.220001,82.9500007 279.420002,82.81 C279.620003,82.6699993 279.753335,82.2866698 279.820002,81.66 C279.860002,81.2866648 279.940001,81.1 280.060002,81.1 C280.193336,81.1 280.260002,81.233332 280.260002,81.5 C280.260002,81.6600008 280.250002,81.906665 280.230002,82.24 C280.210002,82.573335 280.200002,82.8266658 280.200002,83 C280.200002,83.866671 280.220002,84.4599984 280.260002,84.78 C280.273335,84.8866672 280.280002,84.973333 280.280002,85.04 C280.280002,85.2533344 280.213336,85.36 280.080002,85.36 C279.960001,85.36 279.880002,85.193335 279.840002,84.86 C279.760002,84.1399964 279.62667,83.7100007 279.440002,83.57 C279.253334,83.4299993 278.726673,83.36 277.860002,83.36 L277.360002,83.36 L277.360002,87.68 C279.320012,87.6666666 280.473334,87.6133338 280.820002,87.52 C281.353338,87.3733326 281.666668,86.733339 281.760002,85.6 C281.773335,85.399999 281.846668,85.3 281.980002,85.3 C282.113336,85.3 282.180002,85.4799982 282.180002,85.84 Z M311.080002,85.62 C311.080002,86.2333364 310.856671,86.739998 310.410002,87.14 C309.963333,87.540002 309.346673,87.7999994 308.560002,87.92 C308.093333,87.986667 307.06001,88.02 305.460002,88.02 C304.753332,88.02 304.346669,88.0133334 304.240002,88 L304.200002,88 L303.920002,88.02 C303.826668,88.0333334 303.780002,87.9866672 303.780002,87.88 C303.780002,87.7999996 303.806669,87.7533334 303.860002,87.74 C303.913336,87.7266666 304.073334,87.72 304.340002,87.72 C304.60667,87.72 304.760002,87.6933336 304.800002,87.64 C304.840002,87.5866664 304.860002,87.4200014 304.860002,87.14 L304.860002,79.92 C304.860002,79.5733316 304.840002,79.3700003 304.800002,79.31 C304.760002,79.2499997 304.546671,79.2133334 304.160002,79.2 C303.880001,79.1866666 303.740002,79.1400004 303.740002,79.06 C303.740002,78.9533328 303.886667,78.9 304.180002,78.9 L304.520002,78.9 C304.66667,78.9 305.059999,78.9066666 305.700002,78.92 L306.660002,78.94 C307.580007,78.9533334 308.160001,78.9733332 308.400002,79 C308.720004,79.0266668 309.013334,79.0866662 309.280002,79.18 C310.240007,79.5266684 310.720002,80.133329 310.720002,81 C310.720002,82.2133394 309.786678,82.9333322 307.920002,83.16 L307.940002,83.22 C308.91334,83.2333334 309.679999,83.4566645 310.240002,83.89 C310.800005,84.3233355 311.080002,84.8999964 311.080002,85.62 Z M308.920002,81.12 C308.920002,80.2399956 308.720004,79.6866678 308.320002,79.46 C308.093334,79.326666 307.713338,79.26 307.180002,79.26 C306.953334,79.26 306.786669,79.2666666 306.680002,79.28 L306.520002,79.3 L306.520002,83.02 C307.240006,83.0066666 307.733334,82.9400006 308.000002,82.82 C308.613339,82.5399986 308.920002,81.9733376 308.920002,81.12 Z M309.340002,85.46 C309.340002,84.0466596 308.54001,83.34 306.940002,83.34 L306.520002,83.34 L306.520002,87.36 C306.520002,87.5200008 306.553335,87.6166665 306.620002,87.65 C306.686669,87.6833335 306.880001,87.7 307.200002,87.7 C308.626676,87.7 309.340002,86.9533408 309.340002,85.46 Z M329.750002,83.52 C329.750002,84.8133398 329.330007,85.9099955 328.490002,86.81 C327.649998,87.7100045 326.623342,88.16 325.410002,88.16 C324.116663,88.16 323.026674,87.7033379 322.140002,86.79 C321.253331,85.8766621 320.810002,84.7600066 320.810002,83.44 C320.810002,82.0666598 321.233332,80.9433377 322.080002,80.07 C322.926673,79.1966623 324.009996,78.76 325.330002,78.76 C326.583342,78.76 327.633332,79.2166621 328.480002,80.13 C329.326673,81.0433379 329.750002,82.1733266 329.750002,83.52 Z M327.870002,83.58 C327.870002,82.0333256 327.556672,80.8133378 326.930002,79.92 C326.53,79.3466638 325.976673,79.06 325.270002,79.06 C324.296664,79.06 323.590005,79.593328 323.150002,80.66 C322.843334,81.4066704 322.690002,82.3533276 322.690002,83.5 C322.690002,84.8733402 322.93,85.9466628 323.410002,86.72 C323.890005,87.4933372 324.556665,87.88 325.410002,87.88 C327.050011,87.88 327.870002,86.446681 327.870002,83.58 Z M348.240003,87.9 C348.240003,87.9800004 348.106671,88.02 347.840003,88.02 L347.700003,88.02 L346.460003,87.98 L345.900003,87.98 C345.673335,87.98 345.360005,87.9866666 344.960003,88 L344.360003,88.02 L344.000003,88.04 L343.900003,88.04 C343.660001,88.04 343.540003,87.9866672 343.540003,87.88 C343.540003,87.7733328 343.78,87.7133334 344.260003,87.7 C344.833339,87.6866666 345.120003,87.6200006 345.120003,87.5 C345.120003,87.4733332 345.080003,87.3466678 345.000003,87.12 C344.973336,87.0133328 344.820004,86.5666706 344.540003,85.78 L344.300003,85.1 L341.440003,85.1 C340.893333,86.4733402 340.620003,87.2666656 340.620003,87.48 C340.620003,87.6000006 340.700002,87.6666666 340.860003,87.68 L341.120003,87.7 L341.420003,87.7 L341.600003,87.72 C341.760003,87.72 341.840003,87.7666662 341.840003,87.86 C341.840003,87.9666672 341.700004,88.02 341.420003,88.02 C341.380002,88.02 341.143338,88.0100001 340.710003,87.99 C340.276667,87.9699999 339.893338,87.96 339.560003,87.96 L339.380003,87.96 L339.200003,87.98 L338.980003,88 L338.940003,88 C338.726668,88 338.620003,87.9600004 338.620003,87.88 C338.620003,87.7866662 338.706668,87.7333334 338.880003,87.72 C339.120004,87.7066666 339.280002,87.6933334 339.360003,87.68 C339.58667,87.6399998 339.733336,87.5800004 339.800003,87.5 C339.880003,87.4599998 340.206666,86.7000074 340.780003,85.22 C341.00667,84.619997 341.226668,84.0600026 341.440003,83.54 C341.520003,83.3533324 341.573336,83.2133338 341.600003,83.12 C341.626669,83.0266662 341.680002,82.8866676 341.760003,82.7 C341.98667,82.1533306 342.306667,81.3266722 342.720003,80.22 L343.020003,79.38 L343.160003,79.02 C343.240003,78.819999 343.320002,78.72 343.400003,78.72 C343.440003,78.72 343.526669,78.9066648 343.660003,79.28 C344.060005,80.2533382 345.093328,82.8266458 346.760003,87 C346.920003,87.4133354 347.073335,87.6333332 347.220003,87.66 C347.260003,87.6733334 347.473334,87.6933332 347.860003,87.72 C348.113337,87.7333334 348.240003,87.7933328 348.240003,87.9 Z M344.180003,84.74 L342.880003,81.32 C342.560001,82.120004 342.120005,83.2599926 341.560003,84.74 L344.180003,84.74 Z M365.030003,87.52 C365.030003,87.9466688 364.656673,88.16 363.910003,88.16 C363.189999,88.16 362.603338,87.8866694 362.150003,87.34 C361.950002,87.0999988 361.81667,86.8600012 361.750003,86.62 C361.683336,86.3799988 361.603337,85.8133378 361.510003,84.92 C361.443336,84.3466638 361.260004,83.9466678 360.960003,83.72 C360.660001,83.4933322 360.14334,83.3666668 359.410003,83.34 L359.410003,87.46 C359.370003,87.6466676 359.709999,87.74 360.430003,87.74 C360.57667,87.74 360.650003,87.7866662 360.650003,87.88 C360.650003,87.9733338 360.55667,88.02 360.370003,88.02 C360.223335,88.02 360.083337,88.0133334 359.950003,88 L359.250003,88 C358.956668,88 358.603338,88.0066666 358.190003,88.02 L357.150003,88.02 C356.776668,88.02 356.590003,87.9733338 356.590003,87.88 C356.590003,87.7733328 356.656669,87.72 356.790003,87.72 C356.830003,87.72 356.896669,87.7266666 356.990003,87.74 L357.070003,87.74 C357.523338,87.74 357.750003,87.6466676 357.750003,87.46 L357.750003,79.56 C357.750003,79.4133326 357.713337,79.3166669 357.640003,79.27 C357.566669,79.2233331 357.373338,79.2 357.060003,79.2 C356.746668,79.2 356.590003,79.1466672 356.590003,79.04 C356.590003,78.9466662 356.683335,78.9 356.870003,78.9 L357.010003,78.9 C357.223337,78.9266668 357.856664,78.94 358.910003,78.94 C359.350005,78.94 359.710001,78.9333334 359.990003,78.92 C360.270004,78.9066666 360.490002,78.9 360.650003,78.9 C361.543341,78.9 362.26,79.0833315 362.800003,79.45 C363.340006,79.8166685 363.610003,80.299997 363.610003,80.9 C363.610003,81.5533366 363.323339,82.0833313 362.750003,82.49 C362.176667,82.8966687 361.370008,83.133333 360.330003,83.2 C361.450008,83.3200006 362.220001,83.613331 362.640003,84.08 C363.060005,84.546669 363.330002,85.3866606 363.450003,86.6 C363.530003,87.4266708 363.776667,87.84 364.190003,87.84 C364.25667,87.84 364.290003,87.8200002 364.290003,87.78 C364.290003,87.7666666 364.273336,87.7233337 364.240003,87.65 C364.206669,87.5766663 364.190003,87.5200002 364.190003,87.48 C364.190003,87.2266654 364.323335,87.1 364.590003,87.1 C364.883338,87.1 365.030003,87.2399986 365.030003,87.52 Z M361.870003,81.02 C361.870003,79.819994 361.276675,79.22 360.090003,79.22 C359.783335,79.22 359.593337,79.2499997 359.520003,79.31 C359.446669,79.3700003 359.410003,79.5133322 359.410003,79.74 L359.410003,83.02 C361.050011,83.02 361.870003,82.35334 361.870003,81.02 Z M383.220003,83.46 C383.220003,85.0200078 382.620009,86.2266624 381.420003,87.08 C380.553332,87.6933364 379.44001,88 378.080003,88 C378.120003,88 377.963338,87.9933334 377.610003,87.98 C377.256668,87.9666666 376.71334,87.96 375.980003,87.96 L375.540003,87.96 C375.56667,87.96 375.446671,87.9666666 375.180003,87.98 C374.913335,87.9933334 374.646671,88 374.380003,88 L374.200003,88 C373.973335,88 373.860003,87.9400006 373.860003,87.82 C373.860003,87.7133328 373.940002,87.6666666 374.100003,87.68 L374.560003,87.7 C374.826671,87.7133334 374.973336,87.6400008 375.000003,87.48 C375.02667,87.4266664 375.040003,87.1933354 375.040003,86.78 L375.040003,80.36 C375.040003,79.7199968 375.02667,79.3800002 375.000003,79.34 C374.933336,79.2599996 374.700005,79.2133334 374.300003,79.2 C374.060002,79.2 373.940003,79.1533338 373.940003,79.06 C373.940003,78.9533328 374.060002,78.9 374.300003,78.9 L374.480003,78.9 C374.640004,78.9133334 374.880001,78.92 375.200003,78.92 L376.540003,78.92 C378.286678,78.92 379.526666,79.0266656 380.260003,79.24 C381.140007,79.4933346 381.853334,80.0099961 382.400003,80.79 C382.946672,81.5700039 383.220003,82.459995 383.220003,83.46 Z M381.320003,83.4 C381.320003,80.6399862 380.200014,79.26 377.960003,79.26 C377.28,79.26 376.903337,79.2966663 376.830003,79.37 C376.756669,79.4433337 376.720003,79.6866646 376.720003,80.1 L376.720003,87.16 C376.720003,87.4000012 376.776669,87.5466664 376.890003,87.6 C377.003337,87.6533336 377.293334,87.68 377.760003,87.68 C380.133348,87.68 381.320003,86.2533476 381.320003,83.4 Z" id="king-of-the-board" fill="#69625A"></path>
    </g>
</svg>